<svg xmlns="http://www.w3.org/2000/svg" viewBox="0 0 1600 900" width="1600" height="900" preserveAspectRatio="xMidYMid slice">
  <defs><linearGradient id="g" x1="0" y1="0" x2="1" y2="1"><stop offset="0" stop-color="#052e3f"/><stop offset="1" stop-color="#127ea8"/></linearGradient></defs>
  <rect width="1600" height="900" fill="url(#g)"/><path d="M-200 0 L20 900" stroke="#ffffff" stroke-width="1" opacity="0.06"/><path d="M-40 0 L180 900" stroke="#ffffff" stroke-width="1" opacity="0.06"/><path d="M120 0 L340 900" stroke="#ffffff" stroke-width="1" opacity="0.06"/><path d="M280 0 L500 900" stroke="#ffffff" stroke-width="1" opacity="0.06"/><path d="M440 0 L660 900" stroke="#ffffff" stroke-width="1" opacity="0.06"/><path d="M600 0 L820 900" stroke="#ffffff" stroke-width="1" opacity="0.06"/><path d="M760 0 L980 900" stroke="#ffffff" stroke-width="1" opacity="0.06"/><path d="M920 0 L1140 900" stroke="#ffffff" stroke-width="1" opacity="0.06"/><path d="M1080 0 L1300 900" stroke="#ffffff" stroke-width="1" opacity="0.06"/><path d="M1240 0 L1460 900" stroke="#ffffff" stroke-width="1" opacity="0.06"/><path d="M1400 0 L1620 900" stroke="#ffffff" stroke-width="1" opacity="0.06"/><path d="M1560 0 L1780 900" stroke="#ffffff" stroke-width="1" opacity="0.06"/><circle cx="1122" cy="185" r="42" fill="#ffffff" opacity="0.092"/><circle cx="1146" cy="256" r="60" fill="#ffffff" opacity="0.041"/><circle cx="1104" cy="583" r="43" fill="#ffffff" opacity="0.084"/><circle cx="396" cy="334" r="150" fill="#ffffff" opacity="0.11"/><circle cx="1527" cy="892" r="65" fill="#ffffff" opacity="0.078"/><circle cx="83" cy="305" r="61" fill="#ffffff" opacity="0.084"/><circle cx="142" cy="851" r="89" fill="#ffffff" opacity="0.055"/><circle cx="1359" cy="427" r="89" fill="#ffffff" opacity="0.072"/><circle cx="407" cy="313" r="103" fill="#ffffff" opacity="0.09"/><circle cx="1568" cy="645" r="21" fill="#ffffff" opacity="0.079"/><circle cx="446" cy="204" r="38" fill="#ffffff" opacity="0.095"/><circle cx="329" cy="174" r="110" fill="#ffffff" opacity="0.082"/><circle cx="479" cy="607" r="143" fill="#ffffff" opacity="0.056"/><circle cx="616" cy="749" r="103" fill="#ffffff" opacity="0.09"/><circle cx="434" cy="422" r="125" fill="#ffffff" opacity="0.052"/><circle cx="1402" cy="319" r="68" fill="#ffffff" opacity="0.038"/><circle cx="1409" cy="380" r="95" fill="#ffffff" opacity="0.061"/><circle cx="1489" cy="160" r="102" fill="#ffffff" opacity="0.042"/><circle cx="1526" cy="879" r="25" fill="#ffffff" opacity="0.03"/><circle cx="1164" cy="578" r="87" fill="#ffffff" opacity="0.069"/><circle cx="1014" cy="350" r="143" fill="#ffffff" opacity="0.04"/><circle cx="1364" cy="554" r="64" fill="#ffffff" opacity="0.058"/><circle cx="904" cy="129" r="90" fill="#ffffff" opacity="0.094"/><circle cx="1399" cy="14" r="76" fill="#ffffff" opacity="0.06"/><circle cx="216" cy="239" r="69" fill="#ffffff" opacity="0.05"/><circle cx="901" cy="841" r="30" fill="#ffffff" opacity="0.109"/>
</svg>