<svg xmlns="http://www.w3.org/2000/svg" viewBox="0 0 800 500" width="800" height="500" role="img" aria-label="GIẢI ĐẤU">
  <defs><linearGradient id="g" x1="0" y1="0" x2="1" y2="1"><stop offset="0" stop-color="#0699d4"/><stop offset="1" stop-color="#023a53"/></linearGradient></defs>
  <rect width="800" height="500" fill="url(#g)"/><circle cx="243" cy="303" r="85" fill="#fff" opacity="0.064"/><circle cx="618" cy="242" r="90" fill="#fff" opacity="0.057"/><circle cx="13" cy="465" r="76" fill="#fff" opacity="0.079"/><circle cx="239" cy="98" r="76" fill="#fff" opacity="0.11"/><circle cx="562" cy="243" r="66" fill="#fff" opacity="0.12"/><circle cx="154" cy="118" r="35" fill="#fff" opacity="0.145"/><circle cx="535" cy="199" r="17" fill="#fff" opacity="0.124"/><circle cx="65" cy="81" r="21" fill="#fff" opacity="0.083"/><circle cx="31" cy="421" r="50" fill="#fff" opacity="0.102"/><circle cx="736" cy="471" r="65" fill="#fff" opacity="0.129"/><circle cx="437" cy="202" r="89" fill="#fff" opacity="0.099"/><circle cx="137" cy="449" r="62" fill="#fff" opacity="0.061"/><circle cx="139" cy="253" r="43" fill="#fff" opacity="0.078"/><circle cx="688" cy="223" r="54" fill="#fff" opacity="0.096"/>
  <g opacity=".92">
    <rect x="300" y="196" width="200" height="118" rx="26" fill="#ffffff" opacity=".92"/>
    <circle cx="356" cy="246" r="16" fill="#023a53"/><circle cx="444" cy="246" r="16" fill="#023a53"/>
    <path d="M352 288q48 26 96 0" stroke="#023a53" stroke-width="9" fill="none" stroke-linecap="round"/>
    <path d="M400 196v-30" stroke="#ffffff" stroke-width="8" stroke-linecap="round"/><circle cx="400" cy="156" r="14" fill="#ffd21e"/>
  </g>
  <text x="400" y="404" text-anchor="middle" font-family="Helvetica,Arial,sans-serif" font-size="30" font-weight="700" fill="#ffffff" opacity=".9">GIẢI ĐẤU</text>
</svg>